<svg width="16" height="15" viewBox="0 0 16 15" fill="none" xmlns="http://www.w3.org/2000/svg">
<g clip-path="url(#clip0_616_47)">
<path d="M14.9271 7.75642C14.9269 7.75659 14.9268 7.75679 14.9266 7.75696L11.9362 10.7329C11.7122 10.9558 11.3499 10.955 11.1269 10.7309C10.9039 10.5069 10.9048 10.1446 11.1288 9.92159L13.1365 7.92361L1.01663 7.92361C0.70055 7.92361 0.444336 7.6674 0.444336 7.35132C0.444336 7.03525 0.70055 6.77903 1.01663 6.77903L13.1365 6.77903L11.1288 4.78106C10.9048 4.55809 10.904 4.19575 11.1269 3.97173C11.3499 3.74765 11.7123 3.74688 11.9363 3.96978L14.9266 6.94569C14.9268 6.94586 14.9269 6.94606 14.9271 6.94623C15.1513 7.16994 15.1505 7.53345 14.9271 7.75642Z" fill="white"/>
</g>
<defs>
<clipPath id="clip0_616_47">
<rect width="14.6506" height="14.6506" fill="white" transform="matrix(1 8.74228e-08 8.74228e-08 -1 0.444336 14.6766)"/>
</clipPath>
</defs>
</svg>
