<svg width="38" height="39" viewBox="0 0 38 39" fill="none" xmlns="http://www.w3.org/2000/svg">
<g opacity="0.5">
<rect x="0.5" y="0.622314" width="37" height="37" rx="18.5" stroke="white"/>
<g clip-path="url(#clip0_616_39)">
<path d="M12.0729 19.7564C12.0731 19.7566 12.0732 19.7568 12.0734 19.757L15.0638 22.7329C15.2878 22.9558 15.6501 22.955 15.8731 22.7309C16.0961 22.5069 16.0952 22.1446 15.8712 21.9216L13.8635 19.9236L25.9834 19.9236C26.2994 19.9236 26.5557 19.6674 26.5557 19.3513C26.5557 19.0352 26.2994 18.779 25.9834 18.779L13.8635 18.779L15.8712 16.7811C16.0952 16.5581 16.096 16.1958 15.8731 15.9717C15.6501 15.7476 15.2877 15.7469 15.0637 15.9698L12.0734 18.9457C12.0732 18.9459 12.0731 18.9461 12.0729 18.9462C11.8487 19.1699 11.8495 19.5335 12.0729 19.7564Z" fill="white"/>
</g>
</g>
<defs>
<clipPath id="clip0_616_39">
<rect width="14.6506" height="14.6506" fill="white" transform="translate(26.5557 26.6766) rotate(180)"/>
</clipPath>
</defs>
</svg>
